<svg width="40" height="41" viewBox="0 0 40 41" fill="none" xmlns="http://www.w3.org/2000/svg">
<path d="M20 41C31.0457 41 40 31.8218 40 20.5C40 9.17816 31.0457 0 20 0C8.9543 0 0 9.17816 0 20.5C0 31.8218 8.9543 41 20 41Z" fill="#D80027"/>
<path d="M38.756 27.6304C39.56 25.4096 40 23.0076 40 20.5C40 17.9925 39.56 15.5904 38.756 13.3696H1.24398C0.440078 15.5904 0 17.9925 0 20.5C0 23.0076 0.440078 25.4096 1.24398 27.6304L20 29.413L38.756 27.6304Z" fill="#0052B4"/>
<path d="M20 41C28.5993 41 35.9302 35.4368 38.7561 27.6304H1.24402C4.06988 35.4368 11.4007 41 20 41Z" fill="#E59330"/>
</svg>
