<?xml version="1.0" standalone="no"?>
<!DOCTYPE svg PUBLIC "-//W3C//DTD SVG 20010904//EN"
 "http://www.w3.org/TR/2001/REC-SVG-20010904/DTD/svg10.dtd">
<svg version="1.0" xmlns="http://www.w3.org/2000/svg"
 width="225.000000pt" height="225.000000pt" viewBox="0 0 225.000000 225.000000"
 preserveAspectRatio="xMidYMid meet">

<g transform="translate(0.000000,225.000000) scale(0.100000,-0.100000)"
fill="#000000" stroke="none">
<path d="M406 1818 c-9 -12 -16 -27 -16 -32 0 -6 148 -159 330 -341 l330 -330
-321 -320 c-176 -176 -325 -328 -330 -338 -12 -22 13 -57 40 -57 9 0 162 146
341 325 179 179 330 325 336 325 6 0 153 -144 325 -320 173 -177 324 -323 337
-327 27 -7 52 12 52 41 0 14 -103 124 -327 348 l-328 328 328 328 c342 343
356 359 301 384 -24 11 -36 1 -357 -320 l-332 -332 -330 330 c-182 182 -338
330 -347 330 -9 0 -24 -10 -32 -22z"/>
</g>
</svg>
