<svg width="37" height="37" viewBox="0 0 37 37" fill="none" xmlns="http://www.w3.org/2000/svg">
<path d="M36.9181 20.2303H0.0834961V20.2309H36.9181V20.2303Z" fill="#C42126"/>
<path d="M34.9981 10.1312H2.00195V10.1318H34.9981V10.1312Z" fill="#C42126"/>
<path d="M36.3092 13.4971H0.689941V13.4976H36.3092V13.4971Z" fill="#C42126"/>
<path d="M7.95137 33.6945H29.0491L29.0502 33.6934H7.9502L7.95137 33.6945Z" fill="#C42126"/>
<path d="M18.4999 0C18.1365 0 17.776 0.0131229 17.4182 0.0335883H19.5818C19.2237 0.0131229 18.8633 0 18.4999 0Z" fill="#C42126"/>
<path d="M36.9228 16.8636H0.076416V16.8642H36.9228V16.8636Z" fill="#C42126"/>
<path d="M23.9677 6.76529H32.8016C31.7523 5.48792 30.5328 4.35717 29.1818 3.3999H22.5483C23.0972 4.3656 23.5693 5.50511 23.9677 6.76529Z" fill="#E7E7E7"/>
<path d="M22.5484 3.39982H29.1819C26.4396 1.45646 23.1472 0.239473 19.5818 0.0335693H19.0122C20.6904 0.244785 21.4612 1.48677 22.5484 3.39982Z" fill="#DC3027"/>
<path d="M36.3101 13.4973C35.9812 12.3243 35.5401 11.1987 34.998 10.132H24.835C25.0409 11.2125 25.2033 12.3411 25.3236 13.4973H36.3101Z" fill="#E7E7E7"/>
<path d="M24.2634 10.1314H34.9978C34.3861 8.92828 33.6512 7.79924 32.8017 6.7655H23.4248C23.7555 7.81213 24.0362 8.94116 24.2634 10.1314Z" fill="#DC3027"/>
<path d="M25.7129 20.2295H36.9166C36.9698 19.6602 36.9999 19.0833 36.9999 18.5003C36.9999 17.9485 36.971 17.4037 36.9236 16.8639H25.7155C25.752 17.9832 25.7514 19.1108 25.7129 20.2295Z" fill="#E7E7E7"/>
<path d="M36.924 16.8633C36.8226 15.7074 36.6144 14.5828 36.3103 13.4979H24.8518C24.9669 14.6 25.0429 15.7276 25.08 16.8633H36.924Z" fill="#DC3027"/>
<path d="M24.6416 26.9618H34.9495C35.4992 25.8962 35.9473 24.7698 36.2832 23.5958H25.14C25.0172 24.7538 24.8507 25.8822 24.6416 26.9618Z" fill="#E7E7E7"/>
<path d="M36.2836 23.5955C36.5941 22.5109 36.8097 21.3863 36.9169 20.2301H25.3638C25.3243 21.3667 25.2461 22.494 25.1287 23.5955H36.2836Z" fill="#DC3027"/>
<path d="M29.0501 33.6934C30.4207 32.74 31.6574 31.608 32.7233 30.328H24.0434C23.6377 31.5934 23.156 32.7311 22.5972 33.6934H29.0501Z" fill="#E7E7E7"/>
<path d="M23.7168 30.3277H32.7233C33.5827 29.2952 34.3287 28.1661 34.9494 26.9618H24.566C24.3355 28.1529 24.0519 29.2825 23.7168 30.3277Z" fill="#DC3027"/>
<path d="M17.8295 36.9869C17.792 36.9857 17.7547 36.984 17.7173 36.9828C17.7547 36.9839 17.7921 36.9857 17.8295 36.9869Z" fill="#DC3027"/>
<path d="M18.5 37.0001C22.4221 37.0001 26.0562 35.7758 29.0491 33.6946H22.3537C21.1654 35.7419 20.3814 37.0001 18.5 37.0001Z" fill="#DC3027"/>
<path d="M18.4999 37.0001C18.2753 37.0001 18.0521 36.9948 17.8296 36.9869C18.0545 36.9945 18.2779 37.0001 18.4999 37.0001Z" fill="#C42126"/>
<path d="M23.1609 3.3999H7.81836C6.46709 4.35717 5.24784 5.48784 4.19824 6.76529H24.58C24.1816 5.50511 23.7098 4.3656 23.1609 3.3999Z" fill="#F3F4F5"/>
<path d="M7.81836 3.39982H23.1609C22.0735 1.48677 20.6903 0.244785 19.0122 0.0335693H17.4181C13.8527 0.239473 10.5603 1.45646 7.81836 3.39982Z" fill="#E73625"/>
<path d="M0.690186 13.4973H25.9072C25.7868 12.3409 25.6244 11.2125 25.4185 10.132H2.00232C1.46014 11.1988 1.01912 12.3243 0.690186 13.4973Z" fill="#F3F4F5"/>
<path d="M4.19842 6.76526C3.34958 7.799 2.61407 8.92796 2.00269 10.1312H25.4186C25.1916 8.94116 24.9109 7.8122 24.5802 6.76526C24.5802 6.76526 4.19842 6.76526 4.19842 6.76526Z" fill="#E73625"/>
<path d="M0.000244141 18.5003C0.000244141 19.0833 0.0306298 19.6602 0.0835118 20.2295H26.1333C26.1718 19.1107 26.1724 17.9835 26.1359 16.8641H0.0764817C0.0291457 17.4037 0.000244141 17.9485 0.000244141 18.5003Z" fill="#F3F4F5"/>
<path d="M0.076416 16.8633H26.1355C26.0984 15.7273 26.0222 14.6001 25.9074 13.4979H0.689832C0.385741 14.5831 0.177493 15.7074 0.076416 16.8633Z" fill="#E73625"/>
<path d="M25.8982 23.5956H0.716797C1.05276 24.7698 1.50112 25.8959 2.05056 26.9615H25.3998C25.609 25.8822 25.7752 24.7538 25.8982 23.5956Z" fill="#F3F4F5"/>
<path d="M0.716752 23.5955H25.8981C26.0153 22.494 26.0938 21.3664 26.1332 20.2301H0.0834961C0.190666 21.3866 0.406569 22.5109 0.716752 23.5955Z" fill="#E73625"/>
<path d="M7.95009 33.6934H23.1046C23.6634 32.7309 24.1453 31.5934 24.5508 30.328H4.27686C5.34278 31.608 6.57922 32.74 7.95009 33.6934Z" fill="#F3F4F5"/>
<path d="M2.05078 26.9617C2.67154 28.166 3.41751 29.295 4.2769 30.3276H24.5509C24.8857 29.2825 25.1693 28.1529 25.3997 26.9617H2.05078Z" fill="#E73625"/>
<path d="M17.7174 36.9828C17.7548 36.9839 17.7922 36.9856 17.8296 36.9868C18.0522 36.9947 18.2754 36.9999 18.4999 36.9999C20.3814 36.9999 21.9155 35.7419 23.1041 33.6945H7.95142C10.7437 35.6365 14.0953 36.8318 17.7174 36.9828Z" fill="#E73625"/>
<path d="M18.1176 0.00964355C8.63731 0.202503 0.910441 7.52233 0.0788574 16.8332H18.1179V0.00964355H18.1176Z" fill="#283991"/>
<path d="M3.70163 10.4817L3.98346 11.3495H4.89659L4.15789 11.8861L4.44003 12.7546L3.70163 12.2177L2.96347 12.7546L3.24507 11.8861L2.50659 11.3495H3.41972L3.70163 10.4817Z" fill="#EFEFEF"/>
<path d="M3.70163 13.5477L3.98346 14.4161H4.89659L4.15789 14.9527L4.44003 15.8212L3.70163 15.2842L2.96347 15.8212L3.24507 14.9527L2.50659 14.4161H3.41972L3.70163 13.5477Z" fill="#EFEFEF"/>
<path d="M6.76811 5.88159L7.05001 6.74973H7.96283L7.22436 7.28668L7.50627 8.1545L6.76811 7.61819L6.02963 8.1545L6.31154 7.28668L5.57275 6.74973H6.48589L6.76811 5.88159Z" fill="#EFEFEF"/>
<path d="M6.76811 8.94812L7.05001 9.81626H7.96283L7.22436 10.3526L7.50627 11.221L6.76811 10.6847L6.02963 11.221L6.31154 10.3526L5.57275 9.81626H6.48589L6.76811 8.94812Z" fill="#EFEFEF"/>
<path d="M6.76811 12.0146L7.05001 12.8831H7.96283L7.22436 13.4191L7.50627 14.2876L6.76811 13.7507L6.02963 14.2876L6.31154 13.4191L5.57275 12.8831H6.48589L6.76811 12.0146Z" fill="#EFEFEF"/>
<path d="M1.37353 14.2876L1.09139 13.4191L1.82986 12.8828H0.917276L0.896811 12.8195C0.796593 13.1294 0.706061 13.4431 0.622559 13.7603L0.635447 13.7507L1.37353 14.2876Z" fill="#EFEFEF"/>
<path d="M2.96338 9.68807L3.70154 9.1512L4.44001 9.68807L4.15787 8.81961L4.89634 8.28275H3.98321L3.7013 7.41492L3.4194 8.28275H3.08289C3.0204 8.37742 2.95994 8.47264 2.89917 8.56871L3.24505 8.81961L2.96338 9.68807Z" fill="#EFEFEF"/>
<path d="M6.76815 4.5516L7.50631 5.08792L7.2244 4.22009L7.96257 3.68323H7.43531C6.98749 4.01802 6.55545 4.37233 6.14036 4.74618L6.02905 5.08792L6.76815 4.5516Z" fill="#EFEFEF"/>
<path d="M9.09619 3.55508L9.83467 3.01821L10.5728 3.55508L10.2909 2.68662L11.0291 2.1503H10.1163L10.078 2.03345C9.76866 2.19147 9.46254 2.35589 9.16337 2.53087L9.37779 2.68654L9.09619 3.55508Z" fill="#EFEFEF"/>
<path d="M9.83468 4.34863L10.1166 5.21623H11.0294L10.2909 5.75309L10.5728 6.62154L9.83468 6.0846L9.09621 6.62154L9.37811 5.75309L8.6394 5.21623H9.55246L9.83468 4.34863Z" fill="#EFEFEF"/>
<path d="M9.83468 7.41516L10.1166 8.28275H11.0294L10.2909 8.81962L10.5728 9.68807L9.83468 9.15113L9.09621 9.68807L9.37811 8.81962L8.6394 8.28275H9.55246L9.83468 7.41516Z" fill="#EFEFEF"/>
<path d="M9.83468 10.4817L10.1166 11.3495H11.0294L10.2909 11.8861L10.5728 12.7546L9.83468 12.2177L9.09621 12.7546L9.37811 11.8861L8.6394 11.3495H9.55246L9.83468 10.4817Z" fill="#EFEFEF"/>
<path d="M9.83468 13.5477L10.1166 14.4161H11.0294L10.2909 14.9527L10.5728 15.8212L9.83468 15.2842L9.09621 15.8212L9.37811 14.9527L8.6394 14.4161H9.55246L9.83468 13.5477Z" fill="#EFEFEF"/>
<path d="M12.9013 2.81506L13.1832 3.6832H14.0961L13.3579 4.22015L13.6395 5.08798L12.9013 4.55166L12.1626 5.08798L12.4448 4.22015L11.7061 3.6832H12.6191L12.9013 2.81506Z" fill="#EFEFEF"/>
<path d="M12.9013 5.88159L13.1832 6.74973H14.0961L13.3579 7.28668L13.6395 8.1545L12.9013 7.61819L12.1626 8.1545L12.4448 7.28668L11.7061 6.74973H12.6191L12.9013 5.88159Z" fill="#EFEFEF"/>
<path d="M12.9013 8.94812L13.1832 9.81626H14.0961L13.3579 10.3526L13.6395 11.221L12.9013 10.6847L12.1626 11.221L12.4448 10.3526L11.7061 9.81626H12.6191L12.9013 8.94812Z" fill="#EFEFEF"/>
<path d="M12.9013 12.0146L13.1832 12.8831H14.0961L13.3579 13.4191L13.6395 14.2876L12.9013 13.7507L12.1626 14.2876L12.4448 13.4191L11.7061 12.8831H12.6191L12.9013 12.0146Z" fill="#EFEFEF"/>
<path d="M15.9677 1.2821L16.2496 2.15025H17.1625L16.424 2.68656L16.7059 3.55502L15.9677 3.01807L15.229 3.55502L15.5112 2.68656L14.7725 2.15025H15.6853L15.9677 1.2821Z" fill="#EFEFEF"/>
<path d="M15.9677 4.34863L16.2496 5.21623H17.1625L16.424 5.75309L16.7059 6.62154L15.9677 6.0846L15.229 6.62154L15.5112 5.75309L14.7725 5.21623H15.6853L15.9677 4.34863Z" fill="#EFEFEF"/>
<path d="M15.9677 7.41516L16.2496 8.28275H17.1625L16.424 8.81962L16.7059 9.68807L15.9677 9.15113L15.229 9.68807L15.5112 8.81962L14.7725 8.28275H15.6853L15.9677 7.41516Z" fill="#EFEFEF"/>
<path d="M15.9677 10.4817L16.2496 11.3495H17.1625L16.424 11.8861L16.7059 12.7546L15.9677 12.2177L15.229 12.7546L15.5112 11.8861L14.7725 11.3495H15.6853L15.9677 10.4817Z" fill="#EFEFEF"/>
<path d="M15.9677 13.5477L16.2496 14.4161H17.1625L16.424 14.9527L16.7059 15.8212L15.9677 15.2842L15.229 15.8212L15.5112 14.9527L14.7725 14.4161H15.6853L15.9677 13.5477Z" fill="#EFEFEF"/>
</svg>
